<?xml version="1.0" encoding="UTF-8" standalone="no"?>
<!DOCTYPE svg PUBLIC "-//W3C//DTD SVG 1.1//EN" "http://www.w3.org/Graphics/SVG/1.1/DTD/svg11.dtd">
<svg width="65px" height="65px" viewBox="0 0 65 65"  version="1.1" xmlns="http://www.w3.org/2000/svg" xmlns:xlink="http://www.w3.org/1999/xlink" xml:space="preserve" xmlns:serif="http://www.serif.com/" style="fill-rule:evenodd;clip-rule:evenodd;stroke-linejoin:round;stroke-miterlimit:2;">
    <g id="Page-1">
        <g id="Group-3">
            <path id="Path" d="M58.24,0L6.825,0C3.055,0 0,3.055 0,6.825L0,58.11C0,61.945 3.055,65 6.825,65L58.175,65C61.88,65 65,61.945 65,58.175L65,6.825C65.065,3.055 62.01,0 58.24,0Z" style="fill:rgb(67,112,255);fill-rule:nonzero;"/>
            <g id="Path1" serif:id="Path" transform="matrix(1.46945,0,0,1.46945,-6.43998,-16.7267)">
                <path d="M14.417,21L20.056,21C20.816,21 21.532,21.359 21.989,21.968L22.956,23.258C23.412,23.867 24.128,24.226 24.889,24.226L38.583,24.226C39.918,24.226 41,25.309 41,26.645L41,43.581C41,44.917 39.918,46 38.583,46L14.417,46C13.082,46 12,44.917 12,43.581L12,23.419C12,22.083 13.082,21 14.417,21Z" style="fill:white;fill-rule:nonzero;"/>
            </g>
        </g>
        <g transform="matrix(0.0269155,0,0,0.0269155,19.6335,31.3791)">
            <g transform="matrix(1.52852,0,0,1.52852,-133.651,-181.674)">
                <path d="M64.192,108.444L423.809,108.444C453.752,108.444 478.032,84.166 478.032,54.222C478.031,24.278 453.754,0 423.809,0L64.192,0C34.248,0 9.969,24.278 9.969,54.222C9.969,84.166 34.248,108.444 64.192,108.444Z" style="fill:rgb(67,112,255);fill-rule:nonzero;"/>
                <path d="M423.809,189.778L64.192,189.778C34.248,189.778 9.969,214.056 9.969,244C9.969,273.943 34.247,298.223 64.192,298.223L423.809,298.223C453.754,298.223 478.032,273.944 478.032,244C478.031,214.056 453.754,189.778 423.809,189.778Z" style="fill:rgb(67,112,255);fill-rule:nonzero;"/>
                <path d="M423.809,379.557L64.192,379.557C34.248,379.557 9.969,403.834 9.969,433.779C9.969,463.722 34.248,488 64.192,488L423.809,488C453.754,488 478.032,463.722 478.032,433.778C478.031,403.834 453.754,379.557 423.809,379.557Z" style="fill:rgb(67,112,255);fill-rule:nonzero;"/>
            </g>
            <g transform="matrix(2.38113,0,0,2.38113,268.512,-597.403)">
                <path d="M343.217,450.638C343.217,471.191 326.554,487.854 306.001,487.854C285.446,487.854 268.785,471.193 268.785,450.638L268.785,313.289C258.718,306.629 252.076,295.202 252.076,282.227C252.076,261.674 268.739,245.011 289.292,245.011L306.001,245.011C326.554,245.011 343.217,261.674 343.217,282.227L343.217,450.638Z" style="fill:rgb(67,112,255);"/>
            </g>
            <g transform="matrix(2.38113,0,0,2.38113,268.512,-597.403)">
                <path d="M306.001,224.214C278.595,224.214 256.379,201.999 256.379,174.594C256.379,147.189 278.595,124.972 306.001,124.972C333.403,124.972 355.623,147.188 355.623,174.594C355.623,202 333.403,224.214 306.001,224.214Z" style="fill:rgb(67,112,255);"/>
            </g>
        </g>
    </g>
</svg>
